<svg id="icon" xmlns="http://www.w3.org/2000/svg" viewBox="0 0 691 299">
  <title>devhub-stacked-logo</title>
  <style>
  .svg-white {
  fill:white;
}

.svg-blue {
  fill:#00A9E0;
}

.svg-black {
  fill:#000009;
}
  </style>
  <g id="icon-2" class="svg-blue" data-name="icon">
    <polygon points="608.95 175 567 175 567 215.99 608.95 175"/>
    <path d="M618,290.68l9.16-9.22,9.86,9.83,47.19-47.21-9.86-9.87,8.8-9.16,7.84,8.19V175H632.7l8.2,7.81-9.16,9-9.86-10L574.69,229l9.86,9.84-9.26,9.14-8.3-8.21V299h59.21ZM618,217l11.56,29.59L641,217h17.41l-21.3,50H621.54L600,217h18Z"/>
    <polygon points="649.96 299 691 299 691 257 649.96 299"/>
  </g>
  <g id="devhub-2" class="svg-blue" data-name="devhub">
    <path d="M39.19,174H0V297H39.19C53,297,74,296.8,90,280.84v0C101,270,107.55,253.71,107.55,235c0-19.33-5.95-35.47-17.34-46.51C76.37,175.18,59,174,39.19,174Zm49.1,60.65c0,14.92-4.74,27.41-13.35,35.23C63.78,280,48.59,280,36.39,280H19V191H37.83c14.56,0,28.34-.12,38.1,9.64C83.9,208.61,88.29,220.63,88.29,234.65Z"/>
    <path d="M186,264.73c0-11.38-1.5-23.19-10.84-32.53-7.28-7.28-16.88-8.8-23.48-8.8-21.2,0-36,15.61-36,38,0,22.54,14.53,37.69,36.14,37.69,22.52,0,31.34-15,31.43-15.14l1.15-2-11-9L171.52,275A26.1,26.1,0,0,1,152,284a18.49,18.49,0,0,1-18.8-16H186v-3.27ZM133.79,253c1.37-6,6.41-14,17.89-14,10,0,15.4,7,16.62,14H133.79Z"/>
    <polygon points="226.04 273.65 205.11 225 186.86 225 218.28 297 233.25 297 264.66 225 246.84 225 226.04 273.65"/>
    <polygon points="360 225 296 225 296 174 277 174 277 297 296 297 296 242 360 242 360 297 379 297 379 174 360 174 360 225"/>
    <path d="M439,256.8c0,9.11.27,16.3-4.93,21.38a16.55,16.55,0,0,1-11.37,4.63c-4.78,0-8.29-1.21-10.57-3.49-3.12-3.12-3.13-7.24-3.13-13.65V225H392v42.54c0,9.58,1.22,17.35,7.84,24.13,4.9,4.9,11.71,7.39,20.34,7.39a30,30,0,0,0,20.18-7.22l0.13,5.17H456V225H439v31.8Z"/>
    <path d="M509.13,223.8c-10.54,0-17.13,3.9-22.13,7.4V175H471V297h15.46l0.15-4.91c4,3.36,10.57,6.94,20.62,6.94,24,0,36.42-18.92,36.42-37.61C543.64,235.42,526.26,223.8,509.13,223.8Zm-2.18,59.85c-9.88,0-19.85-6.74-19.85-21.8,0-15.45,10.18-22.36,20.27-22.36,7.15,0,19.15,2.92,19.15,22.5C526.52,276.95,516.69,283.65,506.95,283.65Z"/>
  </g>
  <g id="vantiv-2" class="svg-blue" data-name="vantiv">
    <polygon points="531.59 120.91 505.71 120.91 469.95 38.48 499.92 38.48 519.14 87.7 538.05 38.48 567 38.48 531.59 120.91"/>
    <g>
      <path d="M253,85.66H240.38c-7,0-15.14,1.71-15.14,10.22,0,5.62,4.24,9,10.55,9,5.62,0,9.37-1.53,12.43-4.09,3.25-2.73,4.78-7,4.78-11.94V85.66Zm2,35.25-0.67-8.34c-3.57,3.9-12.26,10.38-25.9,10.38-14.81,0-28.95-8-28.95-25.88,0-7.49,2.56-13,6.65-17,9-9,20.42-10.72,32-10.72H253V67.09c0-8.68-6.66-11.39-15-11.39-10,0-18.47,5.52-21.82,8.08L204.58,47.62c3.73-3.45,14.88-12.38,34.95-12.38,13.63,0,23.17,3.06,29.81,9.7,9,9,9.72,19.94,9.72,34.42v41.55H255Z"/>
      <path d="M348.15,120.91V74.08c0-5.62-.17-10.91-4.59-13.79a14.33,14.33,0,0,0-8.53-2.4A15.88,15.88,0,0,0,324,62.15c-4.25,4.25-4.25,11.23-4.25,18.07v40.7H292.47V38.48H318l0.34,8.84a36.8,36.8,0,0,1,27.06-12.07c8.71,0,15.85,2.2,22.33,8.68,6.81,6.82,7.67,16,7.67,25.4v51.59H348.15Z"/>
    </g>
    <polygon points="432.16 38.48 418.5 38.48 418.5 13.17 391.24 13.17 391.24 38.48 383.18 38.48 383.18 59.19 391.24 59.19 391.24 120.91 418.5 120.91 418.5 59.19 432.16 59.19 432.16 38.48"/>
    <rect x="440.01" y="38.48" width="27.25" height="82.43"/>
    <path d="M468.67,17A15,15,0,1,1,453.61,2a15.06,15.06,0,0,1,15.06,15"/>
    <polygon points="168.57 120.91 142.7 120.91 106.93 38.48 136.9 38.48 156.12 87.7 175.04 38.48 204 38.48 168.57 120.91"/>
    <path d="M555.85,109.74a4,4,0,0,0-1.62-.21h-1v2.29h1c1.29,0,2-.21,2-1.13a1.08,1.08,0,0,0-.38-1m0.54,6.83-1.92-3.29h-1.3v3.29H551.4v-8.5h2.92a4.23,4.23,0,0,1,2.67.5,2.57,2.57,0,0,1,1,2.08,2.31,2.31,0,0,1-1.71,2.29l2.13,3.62h-2Zm-2-10.59a6.59,6.59,0,1,0,6.58,6.59A6.6,6.6,0,0,0,554.4,106m0,15.09a8.54,8.54,0,1,1,8.54-8.54,8.55,8.55,0,0,1-8.54,8.54"/>
  </g>
</svg>
