<svg id="icon-2" data-name="icon" xmlns="http://www.w3.org/2000/svg" viewBox="0 0 1200.06 127.65">
<style>
  .svg-white {
  fill:white;
}

.svg-blue {
  fill:#00A9E0;
}

.svg-black {
  fill:#000009;
}
</style>
  <title>devhub-logo</title>
  <g id="icon-3" class="svg-blue" data-name="icon">
    <polygon points="1118.01 3.53 1076.06 3.53 1076.06 44.59 1118.01 3.53"/>
    <path d="M1127.07,119.24l9.16-9.2,9.86,9.84,47.19-47.2-9.86-9.87,8.8-9.16,7.84,8.19V3.53h-58.3l8.2,7.85-9.16,9-9.86-9.95-47.19,47.15,9.86,9.84-9.26,9.15-8.3-8.21v59.19h59.21Zm0-73.71,11.56,29.59L1150,45.53h17.41l-21.3,50h-15.55l-21.5-50h18Z"/>
    <polygon points="1159.03 127.53 1200.06 127.53 1200.06 85.6 1159.03 127.53"/>
  </g>
  <g id="devhub-3" class="svg-blue" data-name="devhub">
    <g>
      <path d="M616.62,63.59c0-19.33-5.95-35.51-17.34-46.55C585.44,3.74,568,2.53,548.26,2.53H509.06v123h39.19c13.77,0,34.81-.13,50.81-16.09v0C610.06,98.59,616.62,82.31,616.62,63.59Zm-19.55-.34c0,14.92-4.59,27.37-13.2,35.2-11.17,10.15-26.21,10.08-38.41,10.08H528.06v-89H546.9c14.56,0,28.19-.1,37.95,9.66,8,8,12.22,20,12.22,34v0Z"/>
      <path d="M584.85,29.19c-9.76-9.76-23.46-9.66-38-9.66,14.56,0,28.23-.09,38,9.67,8,8,12.25,20,12.25,34v0C597.06,49.19,592.82,37.16,584.85,29.19Z"/>
      <path d="M583.72,98.45c8.61-7.83,13.35-20.28,13.35-35.2v0C597.06,78.14,592.32,90.63,583.72,98.45Z"/>
    </g>
    <path d="M695.06,93.33c0-11.38-1.5-23.19-10.84-32.53C677,53.52,667.35,52,660.75,52c-21.2,0-36,15.61-36,38,0,22.54,14.53,37.69,36.14,37.69,22.52,0,31.34-15,31.43-15.14l1.15-2-11-9-1.92,2.11a26,26,0,0,1-19.55,9,18.52,18.52,0,0,1-18.8-16h52.84v-3.2Zm-52.21-11.8c1.37-6,6.41-14,17.89-14,10,0,15.4,7,16.62,14H642.85Z"/>
    <polygon points="735.1 102.18 714.17 53.53 695.93 53.53 727.34 125.53 742.31 125.53 773.72 53.53 755.9 53.53 735.1 102.18"/>
    <polygon points="869.06 53.53 805.06 53.53 805.06 2.53 786.06 2.53 786.06 125.53 805.06 125.53 805.06 70.53 869.06 70.53 869.06 125.53 888.06 125.53 888.06 2.53 869.06 2.53 869.06 53.53"/>
    <path d="M948.06,85.4c0,9.11.27,16.3-4.93,21.38a16.55,16.55,0,0,1-11.37,4.63c-4.78,0-8.29-1.21-10.57-3.49-3.12-3.12-3.13-7.24-3.13-13.65V53.53h-17V96.14c0,9.58,1.22,17.35,7.84,24.13,4.9,4.9,11.71,7.39,20.34,7.39a30,30,0,0,0,20.18-7.26l0.13,5.14h15.51v-72h-17V85.4Z"/>
    <path d="M1018.19,52.4c-10.54,0-17.13,3.9-22.13,7.4V3.53h-16v122h15.46l0.15-4.87c4,3.36,10.57,7,20.62,7,24,0,36.42-18.91,36.42-37.61C1052.71,64,1035.33,52.4,1018.19,52.4ZM1016,112.25c-9.88,0-19.85-6.74-19.85-21.8,0-15.45,10.18-22.36,20.27-22.36,7.15,0,19.15,2.92,19.15,22.5C1035.58,105.55,1025.75,112.25,1016,112.25Z"/>
  </g>
  <g id="vantiv-3" class="svg-blue" data-name="vantiv">
    <polygon points="441.35 123.58 414.45 123.58 377.28 37.91 408.44 37.91 428.41 89.07 448.06 37.91 478.15 37.91 441.35 123.58"/>
    <g>
      <path d="M151.81,86.94H138.69c-7.26,0-15.74,1.77-15.74,10.62,0,5.84,4.41,9.38,11,9.38,5.84,0,9.74-1.59,12.92-4.25,3.38-2.83,5-7.26,5-12.41V86.94Zm2.11,36.64-0.7-8.67c-3.71,4.06-12.74,10.79-26.92,10.79-15.39,0-30.08-8.31-30.08-26.9,0-7.78,2.66-13.47,6.91-17.69C112.49,71.71,124.36,70,136.4,70h15.41V67.64c0-9-6.93-11.84-15.59-11.84-10.41,0-19.2,5.73-22.67,8.4L101.48,47.41c3.88-3.58,15.46-12.86,36.32-12.86,14.16,0,24.08,3.18,31,10.08,9.4,9.4,10.1,20.72,10.1,35.77v43.18h-25Z"/>
      <path d="M250.7,123.58V74.91c0-5.84-.17-11.34-4.77-14.33a14.89,14.89,0,0,0-8.87-2.49,16.51,16.51,0,0,0-11.5,4.43c-4.42,4.42-4.42,11.68-4.42,18.78v42.3H192.83V37.91h26.55l0.35,9.18a38.25,38.25,0,0,1,28.12-12.54c9.05,0,16.48,2.28,23.21,9,7.08,7.08,8,16.65,8,26.4v53.61H250.7Z"/>
    </g>
    <polygon points="338.01 37.91 323.81 37.91 323.81 11.61 295.48 11.61 295.48 37.91 287.1 37.91 287.1 59.44 295.48 59.44 295.48 123.58 323.81 123.58 323.81 59.44 338.01 59.44 338.01 37.91"/>
    <rect x="346.17" y="37.91" width="28.32" height="85.67"/>
    <path d="M376,15.63A15.64,15.64,0,1,1,360.3,0,15.65,15.65,0,0,1,376,15.63Z"/>
    <polygon points="64.07 123.58 37.18 123.58 0 37.91 31.15 37.91 51.13 89.07 70.79 37.91 100.89 37.91 64.07 123.58"/>
    <path d="M466.56,112a4.21,4.21,0,0,0-1.69-.22h-1.09v2.38h1.09c1.34,0,2.08-.22,2.08-1.18a1.13,1.13,0,0,0-.39-1m0.57,7.1-2-3.42h-1.35v3.42h-1.86v-8.84h3a4.4,4.4,0,0,1,2.77.52,2.67,2.67,0,0,1,1,2.17A2.4,2.4,0,0,1,467,115.3l2.21,3.77h-2.08Zm-2.08-11a6.85,6.85,0,1,0,6.84,6.85,6.86,6.86,0,0,0-6.84-6.85m0,15.68a8.88,8.88,0,1,1,8.88-8.87,8.89,8.89,0,0,1-8.88,8.87"/>
  </g>
</svg>
